<?xml version='1.0' encoding='utf-8'?>
<svg xmlns="http://www.w3.org/2000/svg">
  <!--Selected Lucide symbols; ISC License. See icons-LICENSE.txt.-->
  <defs>
    <symbol id="arrow-right" viewBox="0 0 24 24">
      <path d="M5 12h14" />
      <path d="m12 5 7 7-7 7" />
    </symbol>
    <symbol id="arrow-up-right" viewBox="0 0 24 24">
      <path d="M7 7h10v10" />
      <path d="M7 17 17 7" />
    </symbol>
    <symbol id="bell" viewBox="0 0 24 24">
      <path d="M10.268 21a2 2 0 0 0 3.464 0" />
      <path d="M3.262 15.326A1 1 0 0 0 4 17h16a1 1 0 0 0 .74-1.673C19.41 13.956 18 12.499 18 8A6 6 0 0 0 6 8c0 4.499-1.411 5.956-2.738 7.326" />
    </symbol>
    <symbol id="calendar-clock" viewBox="0 0 24 24">
      <path d="M16 14v2.2l1.6 1" />
      <path d="M16 2v3" />
      <path d="M21 7.338V5a2 2 0 00-2-2H5a2 2 0 00-2 2v14a2 2 0 002 2h2.338" />
      <path d="M3 9h5.859" />
      <path d="M8 2v3" />
      <circle cx="16" cy="16" r="6" />
    </symbol>
    <symbol id="calendar-days" viewBox="0 0 24 24">
      <path d="M8 2v3" />
      <path d="M16 2v3" />
      <rect x="3" y="3" width="18" height="18" rx="2" />
      <path d="M3 9h18" />
      <path d="M8 13h.01" />
      <path d="M12 13h.01" />
      <path d="M16 13h.01" />
      <path d="M8 17h.01" />
      <path d="M12 17h.01" />
      <path d="M16 17h.01" />
    </symbol>
    <symbol id="calendar-range" viewBox="0 0 24 24">
      <rect x="3" y="3" width="18" height="18" rx="2" />
      <path d="M16 2v3" />
      <path d="M3 9h18" />
      <path d="M8 2v3" />
      <path d="M17 13h-6" />
      <path d="M13 17H7" />
      <path d="M7 13h.01" />
      <path d="M17 17h.01" />
    </symbol>
    <symbol id="check" viewBox="0 0 24 24">
      <path d="M20 6 9 17l-5-5" />
    </symbol>
    <symbol id="chevron-down" viewBox="0 0 24 24">
      <path d="m6 9 6 6 6-6" />
    </symbol>
    <symbol id="circle-check" viewBox="0 0 24 24">
      <circle cx="12" cy="12" r="10" />
      <path d="m16 9-5.5 5.5L8 12" />
    </symbol>
    <symbol id="circle-dot" viewBox="0 0 24 24">
      <circle cx="12" cy="12" r="1" />
      <circle cx="12" cy="12" r="10" />
    </symbol>
    <symbol id="circle-plus" viewBox="0 0 24 24">
      <circle cx="12" cy="12" r="10" />
      <path d="M8 12h8" />
      <path d="M12 8v8" />
    </symbol>
    <symbol id="clock-3" viewBox="0 0 24 24">
      <circle cx="12" cy="12" r="10" />
      <path d="M12 6v6h4" />
    </symbol>
    <symbol id="ellipsis" viewBox="0 0 24 24">
      <circle cx="12" cy="12" r="1" />
      <circle cx="19" cy="12" r="1" />
      <circle cx="5" cy="12" r="1" />
    </symbol>
    <symbol id="flag" viewBox="0 0 24 24">
      <path d="M4 22V4a1 1 0 0 1 .4-.8A6 6 0 0 1 8 2c3 0 5 2 7.333 2q2 0 3.067-.8A1 1 0 0 1 20 4v10a1 1 0 0 1-.4.8A6 6 0 0 1 16 16c-3 0-5-2-8-2a6 6 0 0 0-4 1.528" />
    </symbol>
    <symbol id="image-plus" viewBox="0 0 24 24">
      <path d="M16 5h6" />
      <path d="M19 2v6" />
      <path d="M21 11.5V19a2 2 0 0 1-2 2H5a2 2 0 0 1-2-2V5a2 2 0 0 1 2-2h7.5" />
      <path d="m21 15-3.086-3.086a2 2 0 0 0-2.828 0L6 21" />
      <circle cx="9" cy="9" r="2" />
    </symbol>
    <symbol id="layout-dashboard" viewBox="0 0 24 24">
      <rect width="7" height="9" x="3" y="3" rx="1" />
      <rect width="7" height="5" x="14" y="3" rx="1" />
      <rect width="7" height="9" x="14" y="12" rx="1" />
      <rect width="7" height="5" x="3" y="16" rx="1" />
    </symbol>
    <symbol id="list-todo" viewBox="0 0 24 24">
      <path d="M13 5h8" />
      <path d="M13 12h8" />
      <path d="M13 19h8" />
      <path d="m3 17 2 2 4-4" />
      <rect x="3" y="4" width="6" height="6" rx="1" />
    </symbol>
    <symbol id="log-out" viewBox="0 0 24 24">
      <path d="m16 17 5-5-5-5" />
      <path d="M21 12H9" />
      <path d="M9 21H5a2 2 0 0 1-2-2V5a2 2 0 0 1 2-2h4" />
    </symbol>
    <symbol id="panel-left" viewBox="0 0 24 24">
      <rect width="18" height="18" x="3" y="3" rx="2" />
      <path d="M9 3v18" />
    </symbol>
    <symbol id="plus" viewBox="0 0 24 24">
      <path d="M5 12h14" />
      <path d="M12 5v14" />
    </symbol>
    <symbol id="search" viewBox="0 0 24 24">
      <path d="m21 21-4.34-4.34" />
      <circle cx="11" cy="11" r="8" />
    </symbol>
    <symbol id="sliders-horizontal" viewBox="0 0 24 24">
      <path d="M10 5H3" />
      <path d="M12 19H3" />
      <path d="M14 3v4" />
      <path d="M16 17v4" />
      <path d="M21 12h-9" />
      <path d="M21 19h-5" />
      <path d="M21 5h-7" />
      <path d="M8 10v4" />
      <path d="M8 12H3" />
    </symbol>
    <symbol id="sparkles" viewBox="0 0 24 24">
      <path d="M11.017 2.814a1 1 0 0 1 1.966 0l1.051 5.558a2 2 0 0 0 1.594 1.594l5.558 1.051a1 1 0 0 1 0 1.966l-5.558 1.051a2 2 0 0 0-1.594 1.594l-1.051 5.558a1 1 0 0 1-1.966 0l-1.051-5.558a2 2 0 0 0-1.594-1.594l-5.558-1.051a1 1 0 0 1 0-1.966l5.558-1.051a2 2 0 0 0 1.594-1.594z" />
      <path d="M20 2v4" />
      <path d="M22 4h-4" />
      <circle cx="4" cy="20" r="2" />
    </symbol>
    <symbol id="square-check-big" viewBox="0 0 24 24">
      <path d="M21 10.656V19a2 2 0 0 1-2 2H5a2 2 0 0 1-2-2V5a2 2 0 0 1 2-2h12.344" />
      <path d="m9 11 3 3L22 4" />
    </symbol>
    <symbol id="triangle-alert" viewBox="0 0 24 24">
      <path d="m21.73 18-8-14a2 2 0 0 0-3.48 0l-8 14A2 2 0 0 0 4 21h16a2 2 0 0 0 1.73-3" />
      <path d="M12 9v4" />
      <path d="M12 17h.01" />
    </symbol>
    <symbol id="upload" viewBox="0 0 24 24">
      <path d="M12 3v12" />
      <path d="m17 8-5-5-5 5" />
      <path d="M21 15v4a2 2 0 0 1-2 2H5a2 2 0 0 1-2-2v-4" />
    </symbol>
    <symbol id="user-round" viewBox="0 0 24 24">
      <circle cx="12" cy="8" r="5" />
      <path d="M20 21a8 8 0 0 0-16 0" />
    </symbol>
    <symbol id="x" viewBox="0 0 24 24">
      <path d="M18 6 6 18" />
      <path d="m6 6 12 12" />
    </symbol>
  </defs>
</svg>